<svg xmlns="http://www.w3.org/2000/svg" xmlns:xlink="http://www.w3.org/1999/xlink" xmlns:lucid="lucid" width="710" height="390"><g transform="translate(-184 -632)" lucid:page-tab-id="0_0"><path d="M300 680c11.05 0 20 13.43 20 30s-8.95 30-20 30h-60c-11.05 0-20-13.43-20-30s8.95-30 20-30z" stroke="#c92d39" stroke-width="2" fill="#c92d39" fill-opacity=".07"/><use xlink:href="#a" transform="matrix(1,0,0,1,225,685) translate(16.99544270833333 34.32725694444444)"/><path d="M300 760c11.05 0 20 13.43 20 30s-8.95 30-20 30h-60c-11.05 0-20-13.43-20-30s8.95-30 20-30z" stroke="#000" stroke-width="2" fill="#fff"/><use xlink:href="#b" transform="matrix(1,0,0,1,225,765) translate(7.6605902777777715 34.32725694444444)"/><path d="M300 840c11.05 0 20 13.43 20 30s-8.95 30-20 30h-60c-11.05 0-20-13.43-20-30s8.95-30 20-30z" stroke="#000" stroke-width="2" fill="#fff"/><use xlink:href="#c" transform="matrix(1,0,0,1,225,845) translate(16.99544270833333 34.32725694444444)"/><path d="M440 680c11.05 0 20 13.43 20 30s-8.95 30-20 30h-60c-11.05 0-20-13.43-20-30s8.95-30 20-30z" stroke="#000" stroke-width="2" fill="#fff"/><use xlink:href="#d" transform="matrix(1,0,0,1,365,685) translate(16.99544270833333 34.32725694444444)"/><path d="M440 760c11.05 0 20 13.43 20 30s-8.95 30-20 30h-60c-11.05 0-20-13.43-20-30s8.95-30 20-30z" stroke="#000" stroke-width="2" fill="#fff"/><use xlink:href="#e" transform="matrix(1,0,0,1,365,765) translate(7.6605902777777715 34.32725694444444)"/><path d="M440 840c11.05 0 20 13.43 20 30s-8.95 30-20 30h-60c-11.05 0-20-13.43-20-30s8.95-30 20-30z" stroke="#000" stroke-width="2" fill="#fff"/><use xlink:href="#f" transform="matrix(1,0,0,1,365,845) translate(16.99544270833333 34.32725694444444)"/><path d="M580 680c11.05 0 20 13.43 20 30s-8.95 30-20 30h-60c-11.05 0-20-13.43-20-30s8.95-30 20-30z" stroke="#000" stroke-width="2" fill="#fff"/><use xlink:href="#g" transform="matrix(1,0,0,1,505,685) translate(7.6605902777777715 34.32725694444444)"/><path d="M580 760c11.05 0 20 13.43 20 30s-8.95 30-20 30h-60c-11.05 0-20-13.43-20-30s8.95-30 20-30z" stroke="#000" stroke-width="2" fill="#fff"/><use xlink:href="#h" transform="matrix(1,0,0,1,505,765) translate(16.99544270833333 34.32725694444444)"/><path d="M580 840c11.05 0 20 13.43 20 30s-8.95 30-20 30h-60c-11.05 0-20-13.43-20-30s8.95-30 20-30z" stroke="#000" stroke-width="2" fill="#fff"/><use xlink:href="#i" transform="matrix(1,0,0,1,505,845) translate(7.6605902777777715 34.32725694444444)"/><path d="M720 680c11.05 0 20 13.43 20 30s-8.95 30-20 30h-60c-11.05 0-20-13.43-20-30s8.95-30 20-30z" stroke="#000" stroke-width="2" fill="#fff"/><use xlink:href="#j" transform="matrix(1,0,0,1,645,685) translate(26.330295138888886 34.32725694444444)"/><path d="M720 760c11.05 0 20 13.43 20 30s-8.95 30-20 30h-60c-11.05 0-20-13.43-20-30s8.95-30 20-30z" stroke="#c92d39" stroke-width="2" fill="#c92d39" fill-opacity=".07"/><use xlink:href="#k" transform="matrix(1,0,0,1,645,765) translate(7.6605902777777715 34.32725694444444)"/><path d="M720 840c11.05 0 20 13.43 20 30s-8.95 30-20 30h-60c-11.05 0-20-13.43-20-30s8.95-30 20-30z" stroke="#c92d39" stroke-width="2" fill="#c92d39" fill-opacity=".07"/><use xlink:href="#l" transform="matrix(1,0,0,1,645,845) translate(16.99544270833333 34.32725694444444)"/><path d="M860 680c11.05 0 20 13.43 20 30s-8.95 30-20 30h-60c-11.05 0-20-13.43-20-30s8.95-30 20-30z" stroke="#000" stroke-width="2" fill="#fff"/><use xlink:href="#m" transform="matrix(1,0,0,1,785,685) translate(16.99544270833333 34.32725694444444)"/><path d="M860 760c11.05 0 20 13.43 20 30s-8.95 30-20 30h-60c-11.05 0-20-13.43-20-30s8.95-30 20-30z" stroke="#000" stroke-width="2" fill="#fff"/><use xlink:href="#m" transform="matrix(1,0,0,1,785,765) translate(16.99544270833333 34.32725694444444)"/><path d="M860 840c11.05 0 20 13.43 20 30s-8.95 30-20 30h-60c-11.05 0-20-13.43-20-30s8.95-30 20-30z" stroke="#000" stroke-width="2" fill="#fff"/><use xlink:href="#m" transform="matrix(1,0,0,1,785,845) translate(16.99544270833333 34.32725694444444)"/><path d="M200 960h220v50H200z" stroke="#000" stroke-opacity="0" stroke-width="2" fill="#e5e5e5"/><use xlink:href="#n" transform="matrix(1,0,0,1,205,965) translate(16.98567708333333 27.32855902777778)"/><use xlink:href="#o" transform="matrix(1,0,0,1,205,965) translate(46.32378472222222 27.32855902777778)"/><path d="M639 790h-19v-40H350v-40h-10.76" stroke="#c92d39" stroke-width="2" fill="none"/><path d="M640 790l.04 1H639v-2h1.08zM338.5 714.64L324.24 710l14.26-4.64z" fill="#c92d39"/><path d="M339.5 716l-18.5-6 18.5-6zm-12.03-6l10.03 3.26v-6.52z" fill="#c92d39"/><path d="M219 710h-19v220h490v-10.76" stroke="#c92d39" stroke-width="2" fill="none"/><path d="M220 710l.04 1H219v-2h1.08zM694.64 918.5h-9.28l4.64-14.26z" fill="#c92d39"/><path d="M696 919.5h-12l6-18.5zm-9.26-2h6.52L690 907.47z" fill="#c92d39"/><path d="M759.24 790H769V660" stroke="#c92d39" stroke-width="2" fill="none"/><path d="M758.5 794.64L744.24 790l14.26-4.64z" fill="#c92d39"/><path d="M759.5 796l-18.5-6 18.5-6zm-12.03-6l10.03 3.26v-6.52z" fill="#c92d39"/><path d="M769 646l10 10-10 10-10-10z" stroke="#000" stroke-opacity="0" stroke-width="2" fill="#c92d39"/><path d="M440 960h220v50H440z" stroke="#000" stroke-opacity="0" stroke-width="2" fill="#e5e5e5"/><use xlink:href="#n" transform="matrix(1,0,0,1,445,965) translate(16.98567708333333 27.32855902777778)"/><use xlink:href="#p" transform="matrix(1,0,0,1,445,965) translate(46.32378472222222 27.32855902777778)"/><path d="M680 960h200v50H680z" stroke="#000" stroke-opacity="0" stroke-width="2" fill="#e5e5e5"/><g><use xlink:href="#n" transform="matrix(1,0,0,1,685,965) translate(58.327365451388886 27.32855902777778)"/><use xlink:href="#q" transform="matrix(1,0,0,1,685,965) translate(87.66547309027777 27.32855902777778)"/></g><defs><path fill="#c92d39" d="M622-1349c296 4 497 117 497 404 0 282-193 424-485 431H353V0H162v-1349h460zm-15 684c195-3 320-88 320-277 0-184-129-255-328-254H353v531h254" id="r"/><path fill="#c92d39" d="M875 0v-623H353V0H162v-1349h191v566h522v-566h191V0H875" id="s"/><path fill="#c92d39" d="M102-681c0-398 126-689 513-689 165 0 291 58 379 174s132 287 132 515c-1 318-88 554-298 657-123 61-317 58-438-3-206-104-288-341-288-654zm749 406c94-160 97-656-5-807-57-85-130-132-231-132-104 0-178 47-234 132-101 153-99 655 1 809 57 89 130 138 232 138 109 0 184-49 237-140" id="t"/><g id="a"><use transform="matrix(0.015190972222222224,0,0,0.015190972222222224,0,0)" xlink:href="#r"/><use transform="matrix(0.015190972222222224,0,0,0.015190972222222224,18.669704861111114,0)" xlink:href="#s"/><use transform="matrix(0.015190972222222224,0,0,0.015190972222222224,37.33940972222223,0)" xlink:href="#t"/></g><path d="M709-1193V0H519v-1193H76v-156h1076v156H709" id="u"/><path d="M1121-976c0 225-142 341-344 379L1177 0H957L591-575H353V0H162v-1349h482c281 3 477 100 477 373zM633-726c181-1 296-73 296-247 0-149-101-223-304-223H353v470h280" id="v"/><path d="M162 0v-1349h919v156H353v422h668v154H353v461h769V0H162" id="w"/><g id="b"><use transform="matrix(0.015190972222222224,0,0,0.015190972222222224,0,0)" xlink:href="#u"/><use transform="matrix(0.015190972222222224,0,0,0.015190972222222224,18.669704861111114,0)" xlink:href="#v"/><use transform="matrix(0.015190972222222224,0,0,0.015190972222222224,37.33940972222223,0)" xlink:href="#w"/><use transform="matrix(0.015190972222222224,0,0,0.015190972222222224,56.00911458333334,0)" xlink:href="#u"/></g><path d="M713 0H515L10-1349h201C345-955 498-579 615-168c116-411 269-787 402-1181h201" id="x"/><path d="M1034 0L896-382H333L196 0H0l510-1349h217L1228 0h-194zM847-531c-77-225-157-447-231-674-69 231-154 451-232 674h463" id="y"/><path d="M285-1169c8 382 2 780 4 1169H129v-1349h237c86 239 188 461 253 720 69-258 169-481 255-720h225V0H937c2-390-5-788 6-1169-75 255-170 488-259 729H547c-90-240-185-475-262-729" id="z"/><g id="c"><use transform="matrix(0.015190972222222224,0,0,0.015190972222222224,0,0)" xlink:href="#x"/><use transform="matrix(0.015190972222222224,0,0,0.015190972222222224,18.669704861111114,0)" xlink:href="#y"/><use transform="matrix(0.015190972222222224,0,0,0.015190972222222224,37.33940972222223,0)" xlink:href="#z"/></g><path d="M102-681c0-398 126-689 513-689 165 0 291 58 379 174s132 287 132 515c0 353-105 610-380 685 49 143 111 234 276 240 36 1 86-7 115-13v134c-94 24-238 34-327-3-143-59-210-191-259-346-336-41-449-320-449-697zm749 406c94-160 97-656-5-807-57-85-130-132-231-132-104 0-178 47-234 132-101 153-99 655 1 809 57 89 130 138 232 138 109 0 184-49 237-140" id="A"/><path d="M604-135c236 0 291-142 291-376v-838h190v859c5 340-142 510-480 510-326 0-463-164-463-492v-877h191v851c-3 222 46 363 271 363" id="B"/><g id="d"><use transform="matrix(0.015190972222222224,0,0,0.015190972222222224,0,0)" xlink:href="#A"/><use transform="matrix(0.015190972222222224,0,0,0.015190972222222224,18.669704861111114,0)" xlink:href="#B"/><use transform="matrix(0.015190972222222224,0,0,0.015190972222222224,37.33940972222223,0)" xlink:href="#y"/></g><path d="M802-711c201 25 350 118 350 331C1152-95 921 0 634 0H162v-1349c401 9 908-74 908 327 0 184-111 275-268 311zm-224-69c174-2 300-51 300-218 0-163-124-198-302-198H353v416h225zM353-153c281-2 612 44 606-244-5-271-329-233-606-234v478" id="C"/><g id="e"><use transform="matrix(0.015190972222222224,0,0,0.015190972222222224,0,0)" xlink:href="#C"/><use transform="matrix(0.015190972222222224,0,0,0.015190972222222224,18.669704861111114,0)" xlink:href="#v"/><use transform="matrix(0.015190972222222224,0,0,0.015190972222222224,37.33940972222223,0)" xlink:href="#w"/><use transform="matrix(0.015190972222222224,0,0,0.015190972222222224,56.00911458333334,0)" xlink:href="#v"/></g><path d="M912-211c-10-84-18-177-18-274v-864h172V0H836L316-1130c7 79 16 167 16 254V0H162v-1349h222" id="D"/><g id="f"><use transform="matrix(0.015190972222222224,0,0,0.015190972222222224,0,0)" xlink:href="#y"/><use transform="matrix(0.015190972222222224,0,0,0.015190972222222224,18.669704861111114,0)" xlink:href="#v"/><use transform="matrix(0.015190972222222224,0,0,0.015190972222222224,37.33940972222223,0)" xlink:href="#D"/></g><path d="M385-1193v494h676v158H385V0H194v-1349h891v156H385" id="E"/><path d="M102-681c0-398 126-689 513-689 165 0 291 58 379 174s132 287 132 515c-1 318-88 554-298 657-123 61-317 58-438-3-206-104-288-341-288-654zm749 406c94-160 97-656-5-807-57-85-130-132-231-132-104 0-178 47-234 132-101 153-99 655 1 809 57 89 130 138 232 138 109 0 184-49 237-140" id="F"/><path d="M622-1349c296 4 497 117 497 404 0 282-193 424-485 431H353V0H162v-1349h460zm-15 684c195-3 320-88 320-277 0-184-129-255-328-254H353v531h254" id="G"/><g id="g"><use transform="matrix(0.015190972222222224,0,0,0.015190972222222224,0,0)" xlink:href="#E"/><use transform="matrix(0.015190972222222224,0,0,0.015190972222222224,18.669704861111114,0)" xlink:href="#v"/><use transform="matrix(0.015190972222222224,0,0,0.015190972222222224,37.33940972222223,0)" xlink:href="#F"/><use transform="matrix(0.015190972222222224,0,0,0.015190972222222224,56.00911458333334,0)" xlink:href="#G"/></g><path d="M655-135c108 0 195-33 260-74v-336H622v-160h479v572C981-54 839 20 639 20c-388 0-526-306-526-701 0-406 129-689 529-689 261 0 392 137 461 331l-171 56c-47-131-122-231-288-231-281 0-330 245-330 533 0 179 28 314 84 407s142 139 257 139" id="H"/><g id="h"><use transform="matrix(0.015190972222222224,0,0,0.015190972222222224,0,0)" xlink:href="#H"/><use transform="matrix(0.015190972222222224,0,0,0.015190972222222224,18.669704861111114,0)" xlink:href="#B"/><use transform="matrix(0.015190972222222224,0,0,0.015190972222222224,37.33940972222223,0)" xlink:href="#H"/></g><path d="M237 0v-1349h191v1193h672V0H237" id="I"/><path d="M202-1349h823v156H709v1037h316V0H202v-156h316v-1037H202v-156" id="J"/><g id="i"><use transform="matrix(0.015190972222222224,0,0,0.015190972222222224,0,0)" xlink:href="#G"/><use transform="matrix(0.015190972222222224,0,0,0.015190972222222224,18.669704861111114,0)" xlink:href="#I"/><use transform="matrix(0.015190972222222224,0,0,0.015190972222222224,37.33940972222223,0)" xlink:href="#J"/><use transform="matrix(0.015190972222222224,0,0,0.015190972222222224,56.00911458333334,0)" xlink:href="#D"/></g><g id="j"><use transform="matrix(0.015190972222222224,0,0,0.015190972222222224,0,0)" xlink:href="#v"/><use transform="matrix(0.015190972222222224,0,0,0.015190972222222224,18.669704861111114,0)" xlink:href="#y"/></g><path fill="#c92d39" d="M708-584V0H520v-584L36-1349h205l374 611 372-611h205" id="K"/><path fill="#c92d39" d="M709-1193V0H519v-1193H76v-156h1076v156H709" id="L"/><g id="k"><use transform="matrix(0.015190972222222224,0,0,0.015190972222222224,0,0)" xlink:href="#s"/><use transform="matrix(0.015190972222222224,0,0,0.015190972222222224,18.669704861111114,0)" xlink:href="#K"/><use transform="matrix(0.015190972222222224,0,0,0.015190972222222224,37.33940972222223,0)" xlink:href="#L"/><use transform="matrix(0.015190972222222224,0,0,0.015190972222222224,56.00911458333334,0)" xlink:href="#s"/></g><path fill="#c92d39" d="M614-836l333-513h205L717-705 1193 0H988L614-573 241 0H36l476-705-435-644h205" id="M"/><path fill="#c92d39" d="M162 0v-1349h919v156H353v422h668v154H353v461h769V0H162" id="N"/><path fill="#c92d39" d="M237 0v-1349h191v1193h672V0H237" id="O"/><g id="l"><use transform="matrix(0.015190972222222224,0,0,0.015190972222222224,0,0)" xlink:href="#M"/><use transform="matrix(0.015190972222222224,0,0,0.015190972222222224,18.669704861111114,0)" xlink:href="#N"/><use transform="matrix(0.015190972222222224,0,0,0.015190972222222224,37.33940972222223,0)" xlink:href="#O"/></g><path d="M496 0v-299h235V0H496" id="P"/><g id="m"><use transform="matrix(0.015190972222222224,0,0,0.015190972222222224,0,0)" xlink:href="#P"/><use transform="matrix(0.015190972222222224,0,0,0.015190972222222224,18.669704861111114,0)" xlink:href="#P"/><use transform="matrix(0.015190972222222224,0,0,0.015190972222222224,37.33940972222223,0)" xlink:href="#P"/></g><path d="M116-154v-153l858-367-858-366v-154l995 418v205" id="Q"/><use transform="matrix(0.01193576388888889,0,0,0.01193576388888889,0,0)" xlink:href="#Q" id="n"/><path d="M875 0v-623H353V0H162v-1349h191v566h522v-566h191V0H875" id="R"/><path d="M708-584V0H520v-584L36-1349h205l374 611 372-611h205" id="S"/><path d="M616-1349c316 3 526 118 526 426 0 301-201 442-514 447H431V0H136v-1349h480zm-25 646c164 1 254-62 254-215 0-157-99-200-262-202H431v417h160" id="T"/><path d="M796 0v-574H433V0H138v-1349h295v531h363v-531h295V0H796" id="U"/><path d="M615-1370c385 0 542 273 542 691 0 230-47 404-140 522S790 20 615 20C231 20 72-262 72-679c0-419 158-691 543-691zM797-330c77-133 78-564 0-695-44-73-101-113-182-113s-139 40-183 114c-79 133-78 560 0 694 45 77 102 118 183 118s138-41 182-118" id="V"/><path d="M614-836l333-513h205L717-705 1193 0H988L614-573 241 0H36l476-705-435-644h205" id="W"/><g id="o"><use transform="matrix(0.01193576388888889,0,0,0.01193576388888889,0,0)" xlink:href="#R"/><use transform="matrix(0.01193576388888889,0,0,0.01193576388888889,14.669053819444446,0)" xlink:href="#S"/><use transform="matrix(0.01193576388888889,0,0,0.01193576388888889,29.338107638888893,0)" xlink:href="#u"/><use transform="matrix(0.01193576388888889,0,0,0.01193576388888889,44.00716145833334,0)" xlink:href="#R"/><use transform="matrix(0.01193576388888889,0,0,0.01193576388888889,58.676215277777786,0)" xlink:href="#T"/><use transform="matrix(0.01193576388888889,0,0,0.01193576388888889,73.34526909722223,0)" xlink:href="#U"/><use transform="matrix(0.01193576388888889,0,0,0.01193576388888889,88.01432291666667,0)" xlink:href="#V"/><use transform="matrix(0.01193576388888889,0,0,0.01193576388888889,102.68337673611111,0)" xlink:href="#W"/><use transform="matrix(0.01193576388888889,0,0,0.01193576388888889,117.35243055555557,0)" xlink:href="#w"/><use transform="matrix(0.01193576388888889,0,0,0.01193576388888889,132.021484375,0)" xlink:href="#I"/></g><path d="M836-709c204 20 350 118 350 324C1186-112 992 0 719 0H137v-1349h525c258 3 443 87 443 339 0 176-107 269-269 301zM643-811c107 0 165-53 165-159 0-113-61-160-167-160H432v319h211zm46 592c128-1 201-59 200-191-1-128-80-183-207-183H432v374h257" id="X"/><path d="M1157-949c0 209-118 316-279 368L1227 0H895L605-515H432V0H137v-1349h494c317-2 526 111 526 400zM608-744c158 1 248-51 252-193 5-207-223-184-428-183v376h176" id="Y"/><path d="M137 0v-1349h968v228H432v324h612v228H432v341h714V0H137" id="Z"/><g id="p"><use transform="matrix(0.01193576388888889,0,0,0.01193576388888889,0,0)" xlink:href="#G"/><use transform="matrix(0.01193576388888889,0,0,0.01193576388888889,14.669053819444446,0)" xlink:href="#I"/><use transform="matrix(0.01193576388888889,0,0,0.01193576388888889,29.338107638888893,0)" xlink:href="#J"/><use transform="matrix(0.01193576388888889,0,0,0.01193576388888889,44.00716145833334,0)" xlink:href="#D"/><use transform="matrix(0.01193576388888889,0,0,0.01193576388888889,58.676215277777786,0)" xlink:href="#X"/><use transform="matrix(0.01193576388888889,0,0,0.01193576388888889,73.34526909722223,0)" xlink:href="#Y"/><use transform="matrix(0.01193576388888889,0,0,0.01193576388888889,88.01432291666667,0)" xlink:href="#Z"/><use transform="matrix(0.01193576388888889,0,0,0.01193576388888889,102.68337673611111,0)" xlink:href="#Y"/><use transform="matrix(0.01193576388888889,0,0,0.01193576388888889,117.35243055555557,0)" xlink:href="#v"/><use transform="matrix(0.01193576388888889,0,0,0.01193576388888889,132.021484375,0)" xlink:href="#y"/></g><g id="q"><use transform="matrix(0.01193576388888889,0,0,0.01193576388888889,0,0)" xlink:href="#P"/><use transform="matrix(0.01193576388888889,0,0,0.01193576388888889,14.669053819444446,0)" xlink:href="#P"/><use transform="matrix(0.01193576388888889,0,0,0.01193576388888889,29.338107638888893,0)" xlink:href="#P"/></g></defs></g></svg>