<svg xmlns="http://www.w3.org/2000/svg" xmlns:xlink="http://www.w3.org/1999/xlink" xmlns:lucid="lucid" width="597" height="398"><g transform="translate(-588 -707)" lucid:page-tab-id="0_0"><path d="M778 711.33h220v50H778z" stroke="#000" stroke-opacity="0" stroke-width="2" fill="#e5e5e5"/><use xlink:href="#a" transform="matrix(1,0,0,1,783,716.3333333333334) translate(46.32378472222222 27.32855902777778)"/><path d="M681 851.5c12.15 0 22 11.2 22 25s-9.85 25-22 25h-66c-12.15 0-22-11.2-22-25s9.85-25 22-25z" stroke="#333" stroke-width="2" fill="#666" fill-opacity=".07"/><use xlink:href="#b" transform="matrix(1,0,0,1,598,856.5) translate(12.660590277777771 29.327256944444446)"/><path d="M801 851.5c12.15 0 22 11.2 22 25s-9.85 25-22 25h-66c-12.15 0-22-11.2-22-25s9.85-25 22-25z" stroke="#666" stroke-width="2" fill="#666" fill-opacity=".07"/><use xlink:href="#c" transform="matrix(1,0,0,1,718,856.5) translate(12.660590277777771 29.327256944444446)"/><path d="M921 851.5c12.15 0 22 11.2 22 25s-9.85 25-22 25h-66c-12.15 0-22-11.2-22-25s9.85-25 22-25z" stroke="#999" stroke-width="2" fill="#666" fill-opacity=".07"/><use xlink:href="#d" transform="matrix(1,0,0,1,838,856.5) translate(12.660590277777771 29.327256944444446)"/><path d="M1041 851.5c12.15 0 22 11.2 22 25s-9.85 25-22 25h-66c-12.15 0-22-11.2-22-25s9.85-25 22-25z" stroke="#b2b2b2" stroke-width="2" fill="#666" fill-opacity=".07"/><use xlink:href="#e" transform="matrix(1,0,0,1,958,856.5) translate(12.660590277777771 29.327256944444446)"/><path d="M1161 851.5c12.15 0 22 11.2 22 25s-9.85 25-22 25h-66c-12.15 0-22-11.2-22-25s9.85-25 22-25z" stroke="#ccc" stroke-width="2" fill="#666" fill-opacity=".07"/><use xlink:href="#f" transform="matrix(1,0,0,1,1078,856.5) translate(12.660590277777771 29.327256944444446)"/><g fill="none"><path d="M833 791.33v-40h52v40z"/><path d="M885 751.33c0 1.8-1.46 3.25-3.25 3.25h-19.5c-1.8 0-3.25 1.46-3.25 3.25 0-1.8-1.46-3.25-3.25-3.25h-19.5c-1.8 0-3.25-1.45-3.25-3.25" stroke="#000" stroke-width="2"/></g><path d="M859.13 761.33v44.6H648v26.33" stroke="#000" stroke-width="2" fill="none"/><path/><path d="M648 847.26L643.36 833h9.28z"/><path d="M648 850.5l-6-18.5h12zm-3.26-16.5l3.26 10.03 3.26-10.03z"/><path d="M913 964.67c11.05 0 20 13.43 20 30s-8.95 30-20 30h-60c-11.05 0-20-13.43-20-30s8.95-30 20-30z" stroke="#c92d39" stroke-width="2" fill="#c92d39" fill-opacity=".07"/><use xlink:href="#g" transform="matrix(1,0,0,1,838,969.6666666666666) translate(16.99544270833333 34.32725694444444)"/><path d="M1083 964.67c11.05 0 20 13.43 20 30s-8.95 30-20 30h-60c-11.05 0-20-13.43-20-30s8.95-30 20-30z" stroke="#c92d39" stroke-width="2" fill="#c92d39" fill-opacity=".07"/><use xlink:href="#h" transform="matrix(1,0,0,1,1008,969.6666666666666) translate(35.66514756944444 34.32725694444444)"/><path d="M934 992.67h68m-68 4h68" stroke="#c92d39" stroke-width="2" fill="none"/><path d="M934 995.67h-1.08l.08-1-.04-1H934zM1002 994.67l-18.67 11.04-1.02-1.7 15.77-9.33-15.76-9.32 1.03-1.72z" fill="#c92d39"/><path d="M913 1044.67c11.05 0 20 13.43 20 30s-8.95 30-20 30h-60c-11.05 0-20-13.43-20-30s8.95-30 20-30z" stroke="#c92d39" stroke-width="2" fill="#c92d39" fill-opacity=".07"/><use xlink:href="#i" transform="matrix(1,0,0,1,838,1049.6666666666667) translate(16.99544270833333 34.32725694444444)"/><path d="M1083 1044.67c11.05 0 20 13.43 20 30s-8.95 30-20 30h-60c-11.05 0-20-13.43-20-30s8.95-30 20-30z" stroke="#c92d39" stroke-width="2" fill="#c92d39" fill-opacity=".07"/><use xlink:href="#j" transform="matrix(1,0,0,1,1008,1049.6666666666667) translate(35.66514756944444 34.32725694444444)"/><path d="M934 1072.67h68m-68 4h68" stroke="#c92d39" stroke-width="2" fill="none"/><path d="M934 1075.67h-1.08l.08-1-.04-1H934zM1002 1074.67l-18.67 11.04-1.02-1.7 15.77-9.33-15.76-9.32 1.03-1.72z" fill="#c92d39"/><path d="M648 902.5v92.17h165.76" stroke="#000" stroke-width="2" fill="none"/><path d="M649 902.5h-2v-1h2zM828.76 994.67l-14.26 4.63v-9.27z"/><path d="M832 994.67l-18.5 6v-12.02zm-16.5 3.26l10.03-3.26-10.03-3.26z"/><path d="M768 902.5v172.17h45.76" fill="none"/><path d="M768 902.5v3.9m0 7.77v7.8m0 7.77v7.78m0 7.8v7.77m0 7.77v7.8m0 7.77v7.78m0 7.8v7.77m0 7.77v7.8m0 7.77v7.78m0 7.8v7.77m0 7.77v7.8m0 7.77v4.83h2.96m7.78 0h7.78m7.8 0h7.77m7.77 0h3.9" stroke="#b2b2b2" stroke-width="2" fill="none"/><path d="M769 902.5h-2v-1h2zM828.76 1074.67l-14.26 4.63v-9.27z" fill="#b2b2b2"/><path d="M832 1074.67l-18.5 6v-12.02zm-16.5 3.26l10.03-3.26-10.03-3.26z" fill="#b2b2b2"/><path d="M852 917h240v48H852z" stroke="#000" stroke-opacity="0" stroke-width="2" fill="#fff" fill-opacity="0"/><use xlink:href="#k" transform="matrix(1,0,0,1,857.0000000000388,922) translate(30.69999999999999 22.6)"/><use xlink:href="#l" transform="matrix(1,0,0,1,857.0000000000388,922) translate(91.5 22.6)"/><g fill="none"><path d="M845.9 805.67v-40h52v40z"/><path d="M897.9 765.67c0 1.8-1.44 3.25-3.24 3.25h-19.5c-1.8 0-3.25 1.45-3.25 3.25 0-1.8-1.44-3.25-3.24-3.25h-19.5c-1.8 0-3.25-1.46-3.25-3.25" stroke="#666" stroke-width="2"/></g><g fill="none"><path d="M862 818.83v-40h52v40z"/><path d="M914 778.83c0 1.8-1.46 3.25-3.25 3.25h-19.5c-1.8 0-3.25 1.46-3.25 3.25 0-1.8-1.46-3.25-3.25-3.25h-19.5c-1.8 0-3.25-1.45-3.25-3.25" stroke="#999" stroke-width="2"/></g><g fill="none"><path d="M874.02 836v-40h52v40z"/><path d="M926.02 796c0 1.8-1.45 3.25-3.25 3.25h-19.5c-1.8 0-3.25 1.46-3.25 3.25 0-1.8-1.45-3.25-3.25-3.25h-19.5c-1.8 0-3.25-1.46-3.25-3.25" stroke="#b2b2b2" stroke-width="2"/></g><defs><path d="M655-135c108 0 195-33 260-74v-336H622v-160h479v572C981-54 839 20 639 20c-388 0-526-306-526-701 0-406 129-689 529-689 261 0 392 137 461 331l-171 56c-47-131-122-231-288-231-281 0-330 245-330 533 0 179 28 314 84 407s142 139 257 139" id="m"/><path d="M1121-976c0 225-142 341-344 379L1177 0H957L591-575H353V0H162v-1349h482c281 3 477 100 477 373zM633-726c181-1 296-73 296-247 0-149-101-223-304-223H353v470h280" id="n"/><path d="M1034 0L896-382H333L196 0H0l510-1349h217L1228 0h-194zM847-531c-77-225-157-447-231-674-69 231-154 451-232 674h463" id="o"/><path d="M912-211c-10-84-18-177-18-274v-864h172V0H836L316-1130c7 79 16 167 16 254V0H162v-1349h222" id="p"/><path d="M202-1349h823v156H709v1037h316V0H202v-156h316v-1037H202v-156" id="q"/><path d="M1155 0H73v-143l818-1050H146v-156h962v139L290-156h865V0" id="r"/><path d="M237 0v-1349h191v1193h672V0H237" id="s"/><g id="a"><use transform="matrix(0.01193576388888889,0,0,0.01193576388888889,0,0)" xlink:href="#m"/><use transform="matrix(0.01193576388888889,0,0,0.01193576388888889,14.669053819444446,0)" xlink:href="#n"/><use transform="matrix(0.01193576388888889,0,0,0.01193576388888889,29.338107638888893,0)" xlink:href="#o"/><use transform="matrix(0.01193576388888889,0,0,0.01193576388888889,44.00716145833334,0)" xlink:href="#p"/><use transform="matrix(0.01193576388888889,0,0,0.01193576388888889,58.676215277777786,0)" xlink:href="#q"/><use transform="matrix(0.01193576388888889,0,0,0.01193576388888889,73.34526909722223,0)" xlink:href="#r"/><use transform="matrix(0.01193576388888889,0,0,0.01193576388888889,88.01432291666667,0)" xlink:href="#o"/><use transform="matrix(0.01193576388888889,0,0,0.01193576388888889,102.68337673611111,0)" xlink:href="#s"/></g><g id="b"><use transform="matrix(0.015190972222222224,0,0,0.015190972222222224,0,0)" xlink:href="#m"/><use transform="matrix(0.015190972222222224,0,0,0.015190972222222224,18.669704861111114,0)" xlink:href="#n"/><use transform="matrix(0.015190972222222224,0,0,0.015190972222222224,37.33940972222223,0)" xlink:href="#o"/><use transform="matrix(0.015190972222222224,0,0,0.015190972222222224,56.00911458333334,0)" xlink:href="#p"/></g><path fill="#666" d="M1121-976c0 225-142 341-344 379L1177 0H957L591-575H353V0H162v-1349h482c281 3 477 100 477 373zM633-726c181-1 296-73 296-247 0-149-101-223-304-223H353v470h280" id="t"/><path fill="#666" d="M1034 0L896-382H333L196 0H0l510-1349h217L1228 0h-194zM847-531c-77-225-157-447-231-674-69 231-154 451-232 674h463" id="u"/><path fill="#666" d="M912-211c-10-84-18-177-18-274v-864h172V0H836L316-1130c7 79 16 167 16 254V0H162v-1349h222" id="v"/><path fill="#666" d="M202-1349h823v156H709v1037h316V0H202v-156h316v-1037H202v-156" id="w"/><g id="c"><use transform="matrix(0.015190972222222224,0,0,0.015190972222222224,0,0)" xlink:href="#t"/><use transform="matrix(0.015190972222222224,0,0,0.015190972222222224,18.669704861111114,0)" xlink:href="#u"/><use transform="matrix(0.015190972222222224,0,0,0.015190972222222224,37.33940972222223,0)" xlink:href="#v"/><use transform="matrix(0.015190972222222224,0,0,0.015190972222222224,56.00911458333334,0)" xlink:href="#w"/></g><path fill="#999" d="M1034 0L896-382H333L196 0H0l510-1349h217L1228 0h-194zM847-531c-77-225-157-447-231-674-69 231-154 451-232 674h463" id="x"/><path fill="#999" d="M912-211c-10-84-18-177-18-274v-864h172V0H836L316-1130c7 79 16 167 16 254V0H162v-1349h222" id="y"/><path fill="#999" d="M202-1349h823v156H709v1037h316V0H202v-156h316v-1037H202v-156" id="z"/><path fill="#999" d="M1155 0H73v-143l818-1050H146v-156h962v139L290-156h865V0" id="A"/><g id="d"><use transform="matrix(0.015190972222222224,0,0,0.015190972222222224,0,0)" xlink:href="#x"/><use transform="matrix(0.015190972222222224,0,0,0.015190972222222224,18.669704861111114,0)" xlink:href="#y"/><use transform="matrix(0.015190972222222224,0,0,0.015190972222222224,37.33940972222223,0)" xlink:href="#z"/><use transform="matrix(0.015190972222222224,0,0,0.015190972222222224,56.00911458333334,0)" xlink:href="#A"/></g><path fill="#b2b2b2" d="M912-211c-10-84-18-177-18-274v-864h172V0H836L316-1130c7 79 16 167 16 254V0H162v-1349h222" id="B"/><path fill="#b2b2b2" d="M202-1349h823v156H709v1037h316V0H202v-156h316v-1037H202v-156" id="C"/><path fill="#b2b2b2" d="M1155 0H73v-143l818-1050H146v-156h962v139L290-156h865V0" id="D"/><path fill="#b2b2b2" d="M1034 0L896-382H333L196 0H0l510-1349h217L1228 0h-194zM847-531c-77-225-157-447-231-674-69 231-154 451-232 674h463" id="E"/><g id="e"><use transform="matrix(0.015190972222222224,0,0,0.015190972222222224,0,0)" xlink:href="#B"/><use transform="matrix(0.015190972222222224,0,0,0.015190972222222224,18.669704861111114,0)" xlink:href="#C"/><use transform="matrix(0.015190972222222224,0,0,0.015190972222222224,37.33940972222223,0)" xlink:href="#D"/><use transform="matrix(0.015190972222222224,0,0,0.015190972222222224,56.00911458333334,0)" xlink:href="#E"/></g><path fill="#ccc" d="M202-1349h823v156H709v1037h316V0H202v-156h316v-1037H202v-156" id="F"/><path fill="#ccc" d="M1155 0H73v-143l818-1050H146v-156h962v139L290-156h865V0" id="G"/><path fill="#ccc" d="M1034 0L896-382H333L196 0H0l510-1349h217L1228 0h-194zM847-531c-77-225-157-447-231-674-69 231-154 451-232 674h463" id="H"/><path fill="#ccc" d="M237 0v-1349h191v1193h672V0H237" id="I"/><g id="f"><use transform="matrix(0.015190972222222224,0,0,0.015190972222222224,0,0)" xlink:href="#F"/><use transform="matrix(0.015190972222222224,0,0,0.015190972222222224,18.669704861111114,0)" xlink:href="#G"/><use transform="matrix(0.015190972222222224,0,0,0.015190972222222224,37.33940972222223,0)" xlink:href="#H"/><use transform="matrix(0.015190972222222224,0,0,0.015190972222222224,56.00911458333334,0)" xlink:href="#I"/></g><path fill="#c92d39" d="M655-135c108 0 195-33 260-74v-336H622v-160h479v572C981-54 839 20 639 20c-388 0-526-306-526-701 0-406 129-689 529-689 261 0 392 137 461 331l-171 56c-47-131-122-231-288-231-281 0-330 245-330 533 0 179 28 314 84 407s142 139 257 139" id="J"/><path fill="#c92d39" d="M1121-976c0 225-142 341-344 379L1177 0H957L591-575H353V0H162v-1349h482c281 3 477 100 477 373zM633-726c181-1 296-73 296-247 0-149-101-223-304-223H353v470h280" id="K"/><path fill="#c92d39" d="M1034 0L896-382H333L196 0H0l510-1349h217L1228 0h-194zM847-531c-77-225-157-447-231-674-69 231-154 451-232 674h463" id="L"/><g id="g"><use transform="matrix(0.015190972222222224,0,0,0.015190972222222224,0,0)" xlink:href="#J"/><use transform="matrix(0.015190972222222224,0,0,0.015190972222222224,18.669704861111114,0)" xlink:href="#K"/><use transform="matrix(0.015190972222222224,0,0,0.015190972222222224,37.33940972222223,0)" xlink:href="#L"/></g><path fill="#c92d39" d="M912-211c-10-84-18-177-18-274v-864h172V0H836L316-1130c7 79 16 167 16 254V0H162v-1349h222" id="M"/><use transform="matrix(0.015190972222222224,0,0,0.015190972222222224,0,0)" xlink:href="#M" id="h"/><g id="i"><use transform="matrix(0.015190972222222224,0,0,0.015190972222222224,0,0)" xlink:href="#K"/><use transform="matrix(0.015190972222222224,0,0,0.015190972222222224,18.669704861111114,0)" xlink:href="#L"/><use transform="matrix(0.015190972222222224,0,0,0.015190972222222224,37.33940972222223,0)" xlink:href="#M"/></g><path fill="#c92d39" d="M202-1349h823v156H709v1037h316V0H202v-156h316v-1037H202v-156" id="N"/><use transform="matrix(0.015190972222222224,0,0,0.015190972222222224,0,0)" xlink:href="#N" id="j"/><path fill="#c92d39" d="M199 0l-22-63H83L61 0H9l90-248h61L250 0h-51zm-33-102l-36-108c-10 38-24 72-36 108h72" id="O"/><path fill="#c92d39" d="M88-194c31-1 46 15 58 34l-1-101h50l1 261h-48c-2-10 0-23-3-31C134-8 116 4 84 4 32 4 16-41 15-95c0-56 19-97 73-99zm17 164c33 0 40-30 41-66 1-37-9-64-41-64s-38 30-39 65c0 43 13 65 39 65" id="P"/><path fill="#c92d39" d="M185-48c-13 30-37 53-82 52C43 2 14-33 14-96s30-98 90-98c62 0 83 45 84 108H66c0 31 8 55 39 56 18 0 30-7 34-22zm-45-69c5-46-57-63-70-21-2 6-4 13-4 21h74" id="Q"/><g id="k"><use transform="matrix(0.05,0,0,0.05,0,0)" xlink:href="#O"/><use transform="matrix(0.05,0,0,0.05,12.950000000000001,0)" xlink:href="#P"/><use transform="matrix(0.05,0,0,0.05,23.900000000000002,0)" xlink:href="#P"/><use transform="matrix(0.05,0,0,0.05,34.85,0)" xlink:href="#Q"/><use transform="matrix(0.05,0,0,0.05,44.85,0)" xlink:href="#P"/></g><path fill="#c92d39" d="M24-248c93 1 206-16 204 79-1 75-69 88-152 82V0H24v-248zm52 121c47 0 100 7 100-41 0-47-54-39-100-39v80" id="R"/><path fill="#c92d39" d="M135-150c-39-12-60 13-60 57V0H25l-1-190h47c2 13-1 29 3 40 6-28 27-53 61-41v41" id="S"/><path fill="#c92d39" d="M110-194c64 0 96 36 96 99 0 64-35 99-97 99-61 0-95-36-95-99 0-62 34-99 96-99zm-1 164c35 0 45-28 45-65 0-40-10-65-43-65-34 0-45 26-45 65 0 36 10 65 43 65" id="T"/><path fill="#c92d39" d="M135-194c52 0 70 43 70 98 0 56-19 99-73 100-30 1-46-15-58-35L72 0H24l1-261h50v104c11-23 29-37 60-37zM114-30c31 0 40-27 40-66 0-37-7-63-39-63s-41 28-41 65c0 36 8 64 40 64" id="U"/><path fill="#c92d39" d="M133-34C117-15 103 5 69 4 32 3 11-16 11-54c-1-60 55-63 116-61 1-26-3-47-28-47-18 1-26 9-28 27l-52-2c7-38 36-58 82-57s74 22 75 68l1 82c-1 14 12 18 25 15v27c-30 8-71 5-69-32zm-48 3c29 0 43-24 42-57-32 0-66-3-65 30 0 17 8 27 23 27" id="V"/><path fill="#c92d39" d="M25-224v-37h50v37H25zM25 0v-190h50V0H25" id="W"/><path fill="#c92d39" d="M25 0v-261h50V0H25" id="X"/><path fill="#c92d39" d="M115-3C79 11 28 4 28-45v-112H4v-33h27l15-45h31v45h36v33H77v99c-1 23 16 31 38 25v30" id="Y"/><path fill="#c92d39" d="M137-138c1-29-70-34-71-4 15 46 118 7 119 86 1 83-164 76-172 9l43-7c4 19 20 25 44 25 33 8 57-30 24-41C81-84 22-81 20-136c-2-80 154-74 161-7" id="Z"/><g id="l"><use transform="matrix(0.05,0,0,0.05,0,0)" xlink:href="#R"/><use transform="matrix(0.05,0,0,0.05,12,0)" xlink:href="#S"/><use transform="matrix(0.05,0,0,0.05,19,0)" xlink:href="#T"/><use transform="matrix(0.05,0,0,0.05,29.950000000000003,0)" xlink:href="#U"/><use transform="matrix(0.05,0,0,0.05,40.900000000000006,0)" xlink:href="#V"/><use transform="matrix(0.05,0,0,0.05,50.900000000000006,0)" xlink:href="#U"/><use transform="matrix(0.05,0,0,0.05,61.85,0)" xlink:href="#W"/><use transform="matrix(0.05,0,0,0.05,66.85000000000001,0)" xlink:href="#X"/><use transform="matrix(0.05,0,0,0.05,71.85000000000001,0)" xlink:href="#W"/><use transform="matrix(0.05,0,0,0.05,76.85000000000001,0)" xlink:href="#Y"/><use transform="matrix(0.05,0,0,0.05,82.80000000000001,0)" xlink:href="#W"/><use transform="matrix(0.05,0,0,0.05,87.80000000000001,0)" xlink:href="#Q"/><use transform="matrix(0.05,0,0,0.05,97.80000000000001,0)" xlink:href="#Z"/></g></defs></g></svg>