<svg xmlns="http://www.w3.org/2000/svg" xmlns:xlink="http://www.w3.org/1999/xlink" xmlns:lucid="lucid" width="851" height="340"><g transform="translate(-200 -200)" lucid:page-tab-id="0_0"><path d="M392 340c15.46 0 28 13.43 28 30s-12.54 30-28 30h-84c-15.46 0-28-13.43-28-30s12.54-30 28-30z" stroke="#000" stroke-width="2" fill="#fff"/><use xlink:href="#a" transform="matrix(1,0,0,1,285,345) translate(18.325737847222214 34.32725694444444)"/><use xlink:href="#b" transform="matrix(1,0,0,1,285,345) translate(55.66514756944444 34.32725694444444)"/><use xlink:href="#c" transform="matrix(1,0,0,1,285,345) translate(93.00455729166667 34.32725694444444)"/><path d="M580 250c0 16.57-13.43 30-30 30s-30-13.43-30-30 13.43-30 30-30 30 13.43 30 30z" stroke="#000" stroke-width="2" fill="#fff"/><use xlink:href="#d" transform="matrix(1,0,0,1,525,225) translate(15.665147569444443 34.32725694444444)"/><path d="M580 330c0 16.57-13.43 30-30 30s-30-13.43-30-30 13.43-30 30-30 30 13.43 30 30z" stroke="#000" stroke-width="2" fill="#fff"/><use xlink:href="#e" transform="matrix(1,0,0,1,525,305) translate(15.665147569444443 34.32725694444444)"/><path d="M580 410c0 16.57-13.43 30-30 30s-30-13.43-30-30 13.43-30 30-30 30 13.43 30 30z" stroke="#000" stroke-width="2" fill="#fff"/><use xlink:href="#f" transform="matrix(1,0,0,1,525,385) translate(15.665147569444443 34.32725694444444)"/><path d="M580 490c0 16.57-13.43 30-30 30s-30-13.43-30-30 13.43-30 30-30 30 13.43 30 30z" stroke="#000" stroke-width="2" fill="#fff"/><use xlink:href="#g" transform="matrix(1,0,0,1,525,465) translate(15.665147569444443 34.32725694444444)"/><path d="M460 230h60v40h-60z" stroke="#000" stroke-opacity="0" stroke-width="2" fill="#fff" fill-opacity="0"/><use xlink:href="#h" transform="matrix(1,0,0,1,465,235) translate(0.55555555555555 19.88888888888889)"/><path d="M460 310h60v40h-60z" stroke="#000" stroke-opacity="0" stroke-width="2" fill="#fff" fill-opacity="0"/><use xlink:href="#i" transform="matrix(1,0,0,1,465,315) translate(0.55555555555555 19.88888888888889)"/><path d="M460 390h60v40h-60z" stroke="#000" stroke-opacity="0" stroke-width="2" fill="#fff" fill-opacity="0"/><use xlink:href="#j" transform="matrix(1,0,0,1,465,395) translate(0.55555555555555 19.88888888888889)"/><path d="M460 470h60v40h-60z" stroke="#000" stroke-opacity="0" stroke-width="2" fill="#fff" fill-opacity="0"/><use xlink:href="#k" transform="matrix(1,0,0,1,465,475) translate(0.55555555555555 19.88888888888889)"/><path d="M406.97 343.56V250h34.8" stroke="#83bbe5" stroke-width="2" fill="none"/><path d="M407.97 345.42l-2-1.32v-.54h2zM456.76 250l-14.26 4.64v-9.28z" fill="#83bbe5"/><path d="M460 250l-18.5 6v-12zm-16.5 3.26l10.03-3.26-10.03-3.26z" fill="#83bbe5"/><path d="M410.77 393.63V490h31" stroke="#83bbe5" stroke-width="2" fill="none"/><path d="M411.77 393.63h-2v-.5l.33-.24 1.67-1.8zM456.76 490l-14.26 4.64v-9.28z" fill="#83bbe5"/><path d="M460 490l-18.5 6v-12zm-16.5 3.26l10.03-3.26-10.03-3.26z" fill="#83bbe5"/><path d="M418.88 381.5h20.56V410h2.32" stroke="#83bbe5" stroke-width="2" fill="none"/><path d="M418.88 382.5h-1.54l.9-2h.64zM456.76 410l-14.26 4.64v-9.28z" fill="#83bbe5"/><path d="M460 410l-18.5 6v-12zm-16.5 3.26l10.03-3.26-10.03-3.26z" fill="#83bbe5"/><path d="M415.13 351.43h22.44V330h4.2" stroke="#c92d39" stroke-width="2" fill="none"/><path d="M415.13 352.43h-.5l-1.53-2h2.03zM456.76 330l-14.26 4.64v-9.28z" fill="#c92d39"/><path d="M460 330l-18.5 6v-12zm-16.5 3.26l10.03-3.26-10.03-3.26z" fill="#c92d39"/><path d="M752 300c15.46 0 28 13.43 28 30s-12.54 30-28 30h-84c-15.46 0-28-13.43-28-30s12.54-30 28-30z" stroke="#000" stroke-width="2" fill="#fff"/><use xlink:href="#l" transform="matrix(1,0,0,1,645,305) translate(18.325737847222214 34.32725694444444)"/><use xlink:href="#m" transform="matrix(1,0,0,1,645,305) translate(55.66514756944444 34.32725694444444)"/><use xlink:href="#n" transform="matrix(1,0,0,1,645,305) translate(93.00455729166667 34.32725694444444)"/><path d="M581 330h39.76" stroke="#c92d39" stroke-width="2" fill="none"/><path d="M581 331h-1.08l.08-1-.04-1H581zM635.76 330l-14.26 4.64v-9.28z" fill="#c92d39"/><path d="M639 330l-18.5 6v-12zm-16.5 3.26l10.03-3.26-10.03-3.26z" fill="#c92d39"/><path d="M776.88 345.9h31.56V380h13.32" fill="none"/><path d="M776.88 345.9h2.96m3.95 0h5.9m3.96 0h5.93m3.94 0h4.9v1.02m0 3.95v5.92m0 3.94v5.93m0 3.95v5.92m.5 3.46h5.9m3.96 0h2.96" stroke="#c92d39" stroke-width="2" fill="none"/><path d="M776.88 346.9h-1.86l1.16-1.77.1-.23h.6z" fill="#c92d39"/><path d="M836.76 380l-14.26 4.64v-9.28z" fill="#fff"/><path d="M840 380l-18.5 6v-12zm-16.5 3.26l10.03-3.26-10.03-3.26z" fill="#c92d39"/><path d="M773.65 309.5h33.18V280h14.93" fill="none"/><path d="M773.65 309.5h2.9m3.9 0h5.8m3.9 0h5.82m3.88 0h5.82m1.16-2.72v-5.82m0-3.88v-5.82m0-3.88v-5.83m2.32-1.55h5.82m3.88 0h2.9" stroke="#83bbe5" stroke-width="2" fill="none"/><path d="M773.65 310.5h-.5l-1.08-1.42-.62-.58h2.2z" fill="#83bbe5"/><path d="M836.76 280l-14.26 4.64v-9.28z" fill="#fff"/><path d="M840 280l-18.5 6v-12zm-16.5 3.26l10.03-3.26-10.03-3.26z" fill="#83bbe5"/><path d="M240 370h20.76" stroke="#c92d39" stroke-width="2" fill="none"/><path d="M240 371h-1l1-1-1-1h1zM275.76 370l-14.26 4.64v-9.28z" fill="#c92d39"/><path d="M279 370l-18.5 6v-12zm-16.5 3.26l10.03-3.26-10.03-3.26z" fill="#c92d39"/><path d="M960 380c0 16.57-13.43 30-30 30s-30-13.43-30-30 13.43-30 30-30 30 13.43 30 30z" stroke="#000" stroke-width="2" fill="#fff"/><use xlink:href="#g" transform="matrix(1,0,0,1,905,355) translate(15.665147569444443 34.32725694444444)"/><path d="M840 360h60v40h-60z" stroke="#000" stroke-opacity="0" stroke-width="2" fill="#fff" fill-opacity="0"/><use xlink:href="#o" transform="matrix(1,0,0,1,845,365) translate(7.345679012345677 19.88888888888889)"/><path d="M961 380h40.76" fill="none"/><path d="M961 380h3.06m4.07 0h6.12m4.08 0h6.1m4.1 0h6.1m4.08 0h3.06" stroke="#c92d39" stroke-width="2" fill="none"/><path d="M961 381h-1.08l.08-1-.04-1H961z" fill="#c92d39"/><path d="M1016.76 380l-14.26 4.64v-9.28z" stroke="#c92d39" stroke-width="2" fill="#fff"/><path d="M740 465h220v50H740z" stroke="#000" stroke-opacity="0" stroke-width="2" fill="#e5e5e5"/><use xlink:href="#p" transform="matrix(1,0,0,1,745,470) translate(31.65473090277777 27.32855902777778)"/><use xlink:href="#q" transform="matrix(1,0,0,1,745,470) translate(60.992838541666664 27.32855902777778)"/><path d="M840 260h60v40h-60z" stroke="#000" stroke-opacity="0" stroke-width="2" fill="#fff" fill-opacity="0"/><g><use xlink:href="#r" transform="matrix(1,0,0,1,845,265) translate(7.345679012345677 19.88888888888889)"/></g><path d="M230 360l10 10-10 10-10-10z" stroke="#000" stroke-opacity="0" stroke-width="2" fill="#c92d39"/><defs><path d="M713 0H515L10-1349h201C345-955 498-579 615-168c116-411 269-787 402-1181h201" id="s"/><use transform="matrix(0.015190972222222224,0,0,0.015190972222222224,0,0)" xlink:href="#s" id="a"/><path d="M202-1349h823v156H709v1037h316V0H202v-156h316v-1037H202v-156" id="t"/><use transform="matrix(0.015190972222222224,0,0,0.015190972222222224,0,0)" xlink:href="#t" id="b"/><path d="M1003 0L516-638 353-469V0H162v-1349h191v673l572-673h225L646-777 1227 0h-224" id="u"/><use transform="matrix(0.015190972222222224,0,0,0.015190972222222224,0,0)" xlink:href="#u" id="c"/><path d="M709-1193V0H519v-1193H76v-156h1076v156H709" id="v"/><use transform="matrix(0.015190972222222224,0,0,0.015190972222222224,0,0)" xlink:href="#v" id="d"/><path d="M875 0v-623H353V0H162v-1349h191v566h522v-566h191V0H875" id="w"/><use transform="matrix(0.015190972222222224,0,0,0.015190972222222224,0,0)" xlink:href="#w" id="e"/><use transform="matrix(0.015190972222222224,0,0,0.015190972222222224,0,0)" xlink:href="#t" id="f"/><path d="M102-681c0-398 126-689 513-689 165 0 291 58 379 174s132 287 132 515c-1 318-88 554-298 657-123 61-317 58-438-3-206-104-288-341-288-654zm749 406c94-160 97-656-5-807-57-85-130-132-231-132-104 0-178 47-234 132-101 153-99 655 1 809 57 89 130 138 232 138 109 0 184-49 237-140" id="x"/><use transform="matrix(0.015190972222222224,0,0,0.015190972222222224,0,0)" xlink:href="#x" id="g"/><path fill="#0c7cba" d="M115-159c48 0 72 30 72 78 0 54-30 85-83 85-64 0-91-50-91-122 0-98 58-163 141-120 15 8 21 24 27 44l-47 6c-5-31-48-31-61-4-7 14-11 33-11 60 9-17 28-27 53-27zM102-35c24 0 36-20 36-45s-11-43-37-43c-23 0-36 14-36 38 0 27 11 50 37 50" id="y"/><path fill="#0c7cba" d="M101-251c68 0 84 54 84 127C185-50 166 4 99 4S15-52 14-124c-1-75 17-127 87-127zm-1 216c37-5 36-46 36-89s4-89-36-89c-39 0-36 45-36 89 0 43-3 85 36 89" id="z"/><path fill="#0c7cba" d="M249-155c45 1 62 31 62 79-1 48-18 79-63 79s-61-32-62-79c0-48 16-79 63-79zM97 0H61l162-248h36zM9-172c0-48 16-79 63-78 46 0 62 31 62 78 0 48-18 79-63 79S9-124 9-172zM249-25c24 0 24-26 24-51 0-26-1-52-24-52-24 0-25 26-25 52 0 25 0 51 25 51zM71-120c23 0 24-25 24-52 0-26 0-51-23-51-25 0-25 25-25 51 0 27 1 52 24 52" id="A"/><g id="h"><use transform="matrix(0.06790123456790124,0,0,0.06790123456790124,0,0)" xlink:href="#y"/><use transform="matrix(0.06790123456790124,0,0,0.06790123456790124,13.580246913580249,0)" xlink:href="#z"/><use transform="matrix(0.06790123456790124,0,0,0.06790123456790124,27.160493827160497,0)" xlink:href="#A"/></g><path fill="#c92d39" d="M23 0v-37h61v-169l-59 37v-38l62-41h46v211h57V0H23" id="B"/><path fill="#c92d39" d="M139-81c0-46-55-55-73-27H18l9-140h149v37H72l-4 63c44-38 133-4 122 66C201 21 21 35 11-62l49-4c5 18 15 30 39 30 26 0 40-18 40-45" id="C"/><path fill="#c92d39" d="M249-155c45 1 62 31 62 79-1 48-18 79-63 79s-61-32-62-79c0-48 16-79 63-79zM97 0H61l162-248h36zM9-172c0-48 16-79 63-78 46 0 62 31 62 78 0 48-18 79-63 79S9-124 9-172zM249-25c24 0 24-26 24-51 0-26-1-52-24-52-24 0-25 26-25 52 0 25 0 51 25 51zM71-120c23 0 24-25 24-52 0-26 0-51-23-51-25 0-25 25-25 51 0 27 1 52 24 52" id="D"/><g id="i"><use transform="matrix(0.06790123456790124,0,0,0.06790123456790124,0,0)" xlink:href="#B"/><use transform="matrix(0.06790123456790124,0,0,0.06790123456790124,13.580246913580249,0)" xlink:href="#C"/><use transform="matrix(0.06790123456790124,0,0,0.06790123456790124,27.160493827160497,0)" xlink:href="#D"/></g><path fill="#0c7cba" d="M23 0v-37h61v-169l-59 37v-38l62-41h46v211h57V0H23" id="E"/><path fill="#0c7cba" d="M139-81c0-46-55-55-73-27H18l9-140h149v37H72l-4 63c44-38 133-4 122 66C201 21 21 35 11-62l49-4c5 18 15 30 39 30 26 0 40-18 40-45" id="F"/><g id="j"><use transform="matrix(0.06790123456790124,0,0,0.06790123456790124,0,0)" xlink:href="#E"/><use transform="matrix(0.06790123456790124,0,0,0.06790123456790124,13.580246913580249,0)" xlink:href="#F"/><use transform="matrix(0.06790123456790124,0,0,0.06790123456790124,27.160493827160497,0)" xlink:href="#A"/></g><g id="k"><use transform="matrix(0.06790123456790124,0,0,0.06790123456790124,0,0)" xlink:href="#E"/><use transform="matrix(0.06790123456790124,0,0,0.06790123456790124,13.580246913580249,0)" xlink:href="#z"/><use transform="matrix(0.06790123456790124,0,0,0.06790123456790124,27.160493827160497,0)" xlink:href="#A"/></g><use transform="matrix(0.015190972222222224,0,0,0.015190972222222224,0,0)" xlink:href="#t" id="l"/><use transform="matrix(0.015190972222222224,0,0,0.015190972222222224,0,0)" xlink:href="#u" id="m"/><path fill="#c92d39" d="M796 0v-574H433V0H138v-1349h295v531h363v-531h295V0H796" id="G"/><use transform="matrix(0.015190972222222224,0,0,0.015190972222222224,0,0)" xlink:href="#G" id="n"/><path fill="#c92d39" d="M24 0v-54h51V0H24" id="H"/><g id="o"><use transform="matrix(0.06790123456790124,0,0,0.06790123456790124,0,0)" xlink:href="#H"/><use transform="matrix(0.06790123456790124,0,0,0.06790123456790124,6.790123456790124,0)" xlink:href="#H"/><use transform="matrix(0.06790123456790124,0,0,0.06790123456790124,13.580246913580249,0)" xlink:href="#D"/></g><path d="M116-154v-153l858-367-858-366v-154l995 418v205" id="I"/><use transform="matrix(0.01193576388888889,0,0,0.01193576388888889,0,0)" xlink:href="#I" id="p"/><path d="M496 0v-299h235V0H496" id="J"/><g id="q"><use transform="matrix(0.01193576388888889,0,0,0.01193576388888889,0,0)" xlink:href="#s"/><use transform="matrix(0.01193576388888889,0,0,0.01193576388888889,14.669053819444446,0)" xlink:href="#t"/><use transform="matrix(0.01193576388888889,0,0,0.01193576388888889,29.338107638888893,0)" xlink:href="#u"/><use transform="matrix(0.01193576388888889,0,0,0.01193576388888889,44.00716145833334,0)" xlink:href="#w"/><use transform="matrix(0.01193576388888889,0,0,0.01193576388888889,58.676215277777786,0)" xlink:href="#x"/><use transform="matrix(0.01193576388888889,0,0,0.01193576388888889,73.34526909722223,0)" xlink:href="#J"/><use transform="matrix(0.01193576388888889,0,0,0.01193576388888889,88.01432291666667,0)" xlink:href="#J"/><use transform="matrix(0.01193576388888889,0,0,0.01193576388888889,102.68337673611111,0)" xlink:href="#J"/></g><path fill="#83bbe5" d="M24 0v-54h51V0H24" id="K"/><path fill="#83bbe5" d="M249-155c45 1 62 31 62 79-1 48-18 79-63 79s-61-32-62-79c0-48 16-79 63-79zM97 0H61l162-248h36zM9-172c0-48 16-79 63-78 46 0 62 31 62 78 0 48-18 79-63 79S9-124 9-172zM249-25c24 0 24-26 24-51 0-26-1-52-24-52-24 0-25 26-25 52 0 25 0 51 25 51zM71-120c23 0 24-25 24-52 0-26 0-51-23-51-25 0-25 25-25 51 0 27 1 52 24 52" id="L"/><g id="r"><use transform="matrix(0.06790123456790124,0,0,0.06790123456790124,0,0)" xlink:href="#K"/><use transform="matrix(0.06790123456790124,0,0,0.06790123456790124,6.790123456790124,0)" xlink:href="#K"/><use transform="matrix(0.06790123456790124,0,0,0.06790123456790124,13.580246913580249,0)" xlink:href="#L"/></g></defs></g></svg>