<svg xmlns="http://www.w3.org/2000/svg" xmlns:xlink="http://www.w3.org/1999/xlink" xmlns:lucid="lucid" width="576" height="317"><g transform="translate(-79 -103)" lucid:page-tab-id="0_0"><path d="M188 140c12.15 0 22 11.2 22 25s-9.85 25-22 25h-66c-12.15 0-22-11.2-22-25s9.85-25 22-25z" stroke="#333" stroke-width="2" fill="#666" fill-opacity=".07"/><use xlink:href="#a" transform="matrix(1,0,0,1,105,145) translate(21.99544270833333 29.327256944444446)"/><path d="M312.74 165c0 13.8-11.7 25-26.16 25-14.45 0-26.16-11.2-26.16-25s11.7-25 26.16-25c14.45 0 26.16 11.2 26.16 25z" stroke="#000" stroke-width="2" fill="#c1e4f7"/><use xlink:href="#b" transform="matrix(1,0,0,1,265.41875455113495,145) translate(12.165147569444443 29.327256944444446)"/><path d="M211 165h30.18" stroke="#000" stroke-width="2" fill="none"/><path d="M211 166h-1.1l.1-1-.1-1h1.1zM256.18 165l-14.26 4.64v-9.28z"/><path d="M259.42 165l-18.5 6v-12zm-16.5 3.26l10.03-3.26-10.03-3.26z"/><path d="M208 260c12.15 0 22 11.2 22 25s-9.85 25-22 25h-66c-12.15 0-22-11.2-22-25s9.85-25 22-25z" stroke="#333" stroke-width="2" fill="#666" fill-opacity=".07"/><use xlink:href="#c" transform="matrix(1,0,0,1,125,265) translate(21.99544270833333 29.327256944444446)"/><path d="M208 320c12.15 0 22 11.2 22 25s-9.85 25-22 25h-66c-12.15 0-22-11.2-22-25s9.85-25 22-25z" stroke="#333" stroke-width="2" fill="#666" fill-opacity=".07"/><use xlink:href="#d" transform="matrix(1,0,0,1,125,325) translate(21.99544270833333 29.327256944444446)"/><path d="M280 255h40v60h-40z" stroke="#000" stroke-opacity="0" stroke-width="2" fill="#fff" fill-opacity="0"/><use xlink:href="#e" transform="matrix(1,0,0,1,285,260) translate(2.0370370370370345 31.22222222222222)"/><path d="M280 315h40v60h-40z" stroke="#000" stroke-opacity="0" stroke-width="2" fill="#fff" fill-opacity="0"/><use xlink:href="#e" transform="matrix(1,0,0,1,285,320) translate(2.0370370370370345 31.22222222222222)"/><path d="M146 120h39.67v280H146z" fill="#0f9" fill-opacity=".4"/><path d="M231 285h30.76" stroke="#000" stroke-width="2" fill="none"/><path d="M231 286h-1.1l.1-1-.1-1h1.1zM276.76 285l-14.26 4.64v-9.28z"/><path d="M280 285l-18.5 6v-12zm-16.5 3.26l10.03-3.26-10.03-3.26z"/><path d="M231 345h30.76" stroke="#000" stroke-width="2" fill="none"/><path d="M231 346h-1.1l.1-1-.1-1h1.1zM276.76 345l-14.26 4.64v-9.28z"/><path d="M280 345l-18.5 6v-12zm-16.5 3.26l10.03-3.26-10.03-3.26z"/><path d="M508 140c12.15 0 22 11.2 22 25s-9.85 25-22 25h-66c-12.15 0-22-11.2-22-25s9.85-25 22-25z" stroke="#333" stroke-width="2" fill="#666" fill-opacity=".07"/><use xlink:href="#a" transform="matrix(1,0,0,1,425,145) translate(21.99544270833333 29.327256944444446)"/><path d="M633.32 165c0 13.8-11.7 25-26.16 25-14.45 0-26.16-11.2-26.16-25s11.7-25 26.16-25c14.45 0 26.16 11.2 26.16 25z" stroke="#000" stroke-width="2" fill="#c1e4f7"/><use xlink:href="#b" transform="matrix(1,0,0,1,586,145) translate(12.165147569444443 29.327256944444446)"/><path d="M531 165h30.76" stroke="#000" stroke-width="2" fill="none"/><path d="M531 166h-1.1l.1-1-.1-1h1.1zM576.76 165l-14.26 4.64v-9.28z"/><path d="M580 165l-18.5 6v-12zm-16.5 3.26l10.03-3.26-10.03-3.26z"/><path d="M633.16 285c0 13.8-11.7 25-26.16 25-14.45 0-26.16-11.2-26.16-25s11.7-25 26.16-25c14.45 0 26.16 11.2 26.16 25z" stroke="#000" stroke-width="2" fill="#c1e4f7"/><use xlink:href="#f" transform="matrix(1,0,0,1,585.838603744318,265) translate(12.165147569444443 29.327256944444446)"/><path d="M632.32 345c0 13.8-11.7 25-26.16 25-14.45 0-26.16-11.2-26.16-25s11.7-25 26.16-25c14.45 0 26.16 11.2 26.16 25z" stroke="#000" stroke-width="2" fill="#c1e4f7"/><use xlink:href="#g" transform="matrix(1,0,0,1,585,325) translate(12.165147569444443 29.327256944444446)"/><path d="M531 165h24.42v120h6.18" stroke="#000" stroke-width="2" fill="none"/><path d="M531 166h-1.1l.1-1-.1-1h1.1zM576.6 285l-14.26 4.64v-9.28z"/><path d="M579.84 285l-18.5 6v-12zm-16.5 3.26l10.03-3.26-10.03-3.26z"/><path d="M531 165h24v180h5.76" stroke="#000" stroke-width="2" fill="none"/><path d="M531 166h-1.1l.1-1-.1-1h1.1zM575.76 345l-14.26 4.64v-9.28z"/><path d="M579 345l-18.5 6v-12zm-16.5 3.26l10.03-3.26-10.03-3.26z"/><defs><path d="M1034 0L896-382H333L196 0H0l510-1349h217L1228 0h-194zM847-531c-77-225-157-447-231-674-69 231-154 451-232 674h463" id="h"/><path d="M1121-976c0 225-142 341-344 379L1177 0H957L591-575H353V0H162v-1349h482c281 3 477 100 477 373zM633-726c181-1 296-73 296-247 0-149-101-223-304-223H353v470h280" id="i"/><path d="M912-211c-10-84-18-177-18-274v-864h172V0H836L316-1130c7 79 16 167 16 254V0H162v-1349h222" id="j"/><g id="a"><use transform="matrix(0.015190972222222224,0,0,0.015190972222222224,0,0)" xlink:href="#h"/><use transform="matrix(0.015190972222222224,0,0,0.015190972222222224,18.669704861111114,0)" xlink:href="#i"/><use transform="matrix(0.015190972222222224,0,0,0.015190972222222224,37.33940972222223,0)" xlink:href="#j"/></g><path d="M604-135c236 0 291-142 291-376v-838h190v859c5 340-142 510-480 510-326 0-463-164-463-492v-877h191v851c-3 222 46 363 271 363" id="k"/><use transform="matrix(0.015190972222222224,0,0,0.015190972222222224,0,0)" xlink:href="#k" id="b"/><path fill="#c92d39" d="M1034 0L896-382H333L196 0H0l510-1349h217L1228 0h-194zM847-531c-77-225-157-447-231-674-69 231-154 451-232 674h463" id="l"/><g id="c"><use transform="matrix(0.015190972222222224,0,0,0.015190972222222224,0,0)" xlink:href="#i"/><use transform="matrix(0.015190972222222224,0,0,0.015190972222222224,18.669704861111114,0)" xlink:href="#j"/><use transform="matrix(0.015190972222222224,0,0,0.015190972222222224,37.33940972222223,0)" xlink:href="#l"/></g><path fill="#c92d39" d="M102-681c0-398 126-689 513-689 165 0 291 58 379 174s132 287 132 515c-1 318-88 554-298 657-123 61-317 58-438-3-206-104-288-341-288-654zm749 406c94-160 97-656-5-807-57-85-130-132-231-132-104 0-178 47-234 132-101 153-99 655 1 809 57 89 130 138 232 138 109 0 184-49 237-140" id="m"/><g id="d"><use transform="matrix(0.015190972222222224,0,0,0.015190972222222224,0,0)" xlink:href="#i"/><use transform="matrix(0.015190972222222224,0,0,0.015190972222222224,18.669704861111114,0)" xlink:href="#j"/><use transform="matrix(0.015190972222222224,0,0,0.015190972222222224,37.33940972222223,0)" xlink:href="#m"/></g><path d="M24 0v-54h51V0H24" id="n"/><g id="e"><use transform="matrix(0.08641975308641976,0,0,0.08641975308641976,0,0)" xlink:href="#n"/><use transform="matrix(0.08641975308641976,0,0,0.08641975308641976,8.641975308641976,0)" xlink:href="#n"/><use transform="matrix(0.08641975308641976,0,0,0.08641975308641976,17.283950617283953,0)" xlink:href="#n"/></g><use transform="matrix(0.015190972222222224,0,0,0.015190972222222224,0,0)" xlink:href="#l" id="f"/><use transform="matrix(0.015190972222222224,0,0,0.015190972222222224,0,0)" xlink:href="#m" id="g"/></defs></g></svg>