<svg xmlns="http://www.w3.org/2000/svg" xmlns:xlink="http://www.w3.org/1999/xlink" xmlns:lucid="lucid" width="567" height="304"><g transform="translate(-1077 -130)" lucid:page-tab-id="0_0"><path d="M1085.08 204.5h144.05v50h-144.05z" stroke="#000" stroke-opacity="0" stroke-width="2" fill="#e5e5e5"/><use xlink:href="#a" transform="matrix(1,0,0,1,1090.0802444803912,209.49236804403517) translate(0 27.32855902777778)"/><path d="M1084.78 262h144.04v50h-144.04z" stroke="#000" stroke-opacity="0" stroke-width="2" fill="#e5e5e5"/><use xlink:href="#b" transform="matrix(1,0,0,1,1089.7753588125026,267.0000000000001) translate(0 27.32855902777778)"/><path d="M1084.95 319H1229v50h-144.05z" stroke="#000" stroke-opacity="0" stroke-width="2" fill="#e5e5e5"/><use xlink:href="#c" transform="matrix(1,0,0,1,1089.9515653326648,324) translate(0 27.32855902777778)"/><path d="M1084.78 377.02h144.04v50h-144.04z" stroke="#000" stroke-opacity="0" stroke-width="2" fill="#e5e5e5"/><use xlink:href="#d" transform="matrix(1,0,0,1,1089.7753588125026,382.01526391192976) translate(0 27.32855902777778)"/><path d="M1363.5 262c12.15 0 22 11.2 22 25s-9.85 25-22 25h-66c-12.15 0-22-11.2-22-25s9.85-25 22-25z" stroke="#333" stroke-width="2" fill="#666" fill-opacity=".07"/><use xlink:href="#e" transform="matrix(1,0,0,1,1280.500547321024,267) translate(21.99544270833333 29.327256944444446)"/><path d="M1488.44 230c0 13.8-11.7 25-26.16 25-14.45 0-26.16-11.2-26.16-25s11.7-25 26.16-25c14.45 0 26.16 11.2 26.16 25z" stroke="#000" stroke-width="2" fill="#c1e4f7"/><use xlink:href="#f" transform="matrix(1,0,0,1,1441.1177327272244,210) translate(12.165147569444443 29.327256944444446)"/><path d="M1488.24 287c0 13.8-11.7 25-26.16 25-14.45 0-26.16-11.2-26.16-25s11.7-25 26.16-25c14.45 0 26.16 11.2 26.16 25z" stroke="#000" stroke-width="2" fill="#c1e4f7"/><use xlink:href="#g" transform="matrix(1,0,0,1,1440.919301872159,267) translate(12.165147569444443 29.327256944444446)"/><path d="M1488.24 344c0 13.8-11.7 25-26.16 25-14.45 0-26.16-11.2-26.16-25s11.7-25 26.16-25c14.45 0 26.16 11.2 26.16 25z" stroke="#000" stroke-width="2" fill="#c1e4f7"/><use xlink:href="#h" transform="matrix(1,0,0,1,1440.919301872159,324) translate(12.165147569444443 29.327256944444446)"/><path d="M1386.5 287h24.3v-57h6.08" stroke="#000" stroke-width="2" fill="none"/><path d="M1386.5 288h-1.1l.1-1-.08-1h1.08zM1431.88 230l-14.26 4.64v-9.28z"/><path d="M1435.12 230l-18.5 6v-12zm-16.5 3.26l10.03-3.26-10.03-3.26z"/><path d="M1386.5 287h30.18" stroke="#000" stroke-width="2" fill="none"/><path d="M1386.5 288h-1.1l.1-1-.08-1h1.08zM1431.68 287l-14.26 4.64v-9.28z"/><path d="M1434.92 287l-18.5 6v-12zm-16.5 3.26l10.03-3.26-10.03-3.26z"/><path d="M1386.5 287h24.2v57h5.98" stroke="#000" stroke-width="2" fill="none"/><path d="M1386.5 288h-1.1l.1-1-.08-1h1.08zM1431.68 344l-14.26 4.64v-9.28z"/><path d="M1434.92 344l-18.5 6v-12zm-16.5 3.26l10.03-3.26-10.03-3.26z"/><path d="M1085.13 146.98h144.05v50h-144.05z" stroke="#000" stroke-opacity="0" stroke-width="2" fill="#e5e5e5"/><use xlink:href="#i" transform="matrix(1,0,0,1,1090.1286791477264,151.98473608807024) translate(0 27.32855902777778)"/><path d="M1497.96 197h148.9v64h-148.9z" stroke="#000" stroke-opacity="0" stroke-width="2" fill="#fff" fill-opacity="0"/><use xlink:href="#j" transform="matrix(1,0,0,1,1502.9634211065463,202) translate(0 32.396484375)"/><use xlink:href="#k" transform="matrix(1,0,0,1,1502.9634211065463,202) translate(21.603515625 32.396484375)"/><use xlink:href="#l" transform="matrix(1,0,0,1,1502.9634211065463,202) translate(54.0087890625 32.396484375)"/><use xlink:href="#m" transform="matrix(1,0,0,1,1502.9634211065463,202) translate(75.6123046875 32.396484375)"/><use xlink:href="#n" transform="matrix(1,0,0,1,1502.9634211065463,202) translate(97.2158203125 32.396484375)"/><path d="M1498.24 255h149v64h-149z" stroke="#000" stroke-opacity="0" stroke-width="2" fill="#fff" fill-opacity="0"/><g><use xlink:href="#o" transform="matrix(1,0,0,1,1503.2420943835232,260) translate(0 32.396484375)"/><use xlink:href="#k" transform="matrix(1,0,0,1,1503.2420943835232,260) translate(21.603515625 32.396484375)"/><use xlink:href="#l" transform="matrix(1,0,0,1,1503.2420943835232,260) translate(54.0087890625 32.396484375)"/><use xlink:href="#m" transform="matrix(1,0,0,1,1503.2420943835232,260) translate(75.6123046875 32.396484375)"/><use xlink:href="#p" transform="matrix(1,0,0,1,1503.2420943835232,260) translate(97.2158203125 32.396484375)"/></g><path d="M1498.62 313h148.62v64h-148.62z" stroke="#000" stroke-opacity="0" stroke-width="2" fill="#fff" fill-opacity="0"/><g><use xlink:href="#o" transform="matrix(1,0,0,1,1503.6164102322432,318) translate(0 32.396484375)"/><use xlink:href="#k" transform="matrix(1,0,0,1,1503.6164102322432,318) translate(21.603515625 32.396484375)"/><use xlink:href="#l" transform="matrix(1,0,0,1,1503.6164102322432,318) translate(54.0087890625 32.396484375)"/><use xlink:href="#m" transform="matrix(1,0,0,1,1503.6164102322432,318) translate(75.6123046875 32.396484375)"/><use xlink:href="#p" transform="matrix(1,0,0,1,1503.6164102322432,318) translate(97.2158203125 32.396484375)"/></g><defs><path fill="#c92d39" d="M655-135c108 0 195-33 260-74v-336H622v-160h479v572C981-54 839 20 639 20c-388 0-526-306-526-701 0-406 129-689 529-689 261 0 392 137 461 331l-171 56c-47-131-122-231-288-231-281 0-330 245-330 533 0 179 28 314 84 407s142 139 257 139" id="q"/><path fill="#c92d39" d="M1121-976c0 225-142 341-344 379L1177 0H957L591-575H353V0H162v-1349h482c281 3 477 100 477 373zM633-726c181-1 296-73 296-247 0-149-101-223-304-223H353v470h280" id="r"/><path fill="#c92d39" d="M1034 0L896-382H333L196 0H0l510-1349h217L1228 0h-194zM847-531c-77-225-157-447-231-674-69 231-154 451-232 674h463" id="s"/><path d="M912-211c-10-84-18-177-18-274v-864h172V0H836L316-1130c7 79 16 167 16 254V0H162v-1349h222" id="t"/><path fill="#999" d="M587-135c154 0 209-115 209-281v-777H485v-156h501v929C982-148 857 20 586 20c-254 0-368-136-410-370l187-31c24 134 77 246 224 246" id="u"/><path fill="#999" d="M1034 0L896-382H333L196 0H0l510-1349h217L1228 0h-194zM847-531c-77-225-157-447-231-674-69 231-154 451-232 674h463" id="v"/><g id="a"><use transform="matrix(0.01193576388888889,0,0,0.01193576388888889,0,0)" xlink:href="#q"/><use transform="matrix(0.01193576388888889,0,0,0.01193576388888889,14.669053819444446,0)" xlink:href="#r"/><use transform="matrix(0.01193576388888889,0,0,0.01193576388888889,29.338107638888893,0)" xlink:href="#s"/><use transform="matrix(0.01193576388888889,0,0,0.01193576388888889,44.00716145833334,0)" xlink:href="#t"/><use transform="matrix(0.01193576388888889,0,0,0.01193576388888889,58.676215277777786,0)" xlink:href="#u"/><use transform="matrix(0.01193576388888889,0,0,0.01193576388888889,73.34526909722223,0)" xlink:href="#v"/></g><path fill="#999" d="M102-681c0-398 126-689 513-689 165 0 291 58 379 174s132 287 132 515c-1 318-88 554-298 657-123 61-317 58-438-3-206-104-288-341-288-654zm749 406c94-160 97-656-5-807-57-85-130-132-231-132-104 0-178 47-234 132-101 153-99 655 1 809 57 89 130 138 232 138 109 0 184-49 237-140" id="w"/><g id="b"><use transform="matrix(0.01193576388888889,0,0,0.01193576388888889,0,0)" xlink:href="#q"/><use transform="matrix(0.01193576388888889,0,0,0.01193576388888889,14.669053819444446,0)" xlink:href="#r"/><use transform="matrix(0.01193576388888889,0,0,0.01193576388888889,29.338107638888893,0)" xlink:href="#s"/><use transform="matrix(0.01193576388888889,0,0,0.01193576388888889,44.00716145833334,0)" xlink:href="#t"/><use transform="matrix(0.01193576388888889,0,0,0.01193576388888889,58.676215277777786,0)" xlink:href="#w"/></g><path d="M709-1193V0H519v-1193H76v-156h1076v156H709" id="x"/><g id="c"><use transform="matrix(0.01193576388888889,0,0,0.01193576388888889,0,0)" xlink:href="#q"/><use transform="matrix(0.01193576388888889,0,0,0.01193576388888889,14.669053819444446,0)" xlink:href="#r"/><use transform="matrix(0.01193576388888889,0,0,0.01193576388888889,29.338107638888893,0)" xlink:href="#s"/><use transform="matrix(0.01193576388888889,0,0,0.01193576388888889,44.00716145833334,0)" xlink:href="#x"/><use transform="matrix(0.01193576388888889,0,0,0.01193576388888889,58.676215277777786,0)" xlink:href="#v"/></g><path d="M650-1214c-281 0-336 244-336 533 0 295 60 546 347 546 188 0 263-142 322-282l159 65C1058-155 935 20 659 20c-401 0-546-295-546-701 0-407 135-689 536-689 264 0 391 146 466 335l-168 65c-47-129-127-244-297-244" id="y"/><path fill="#999" d="M202-1349h823v156H709v1037h316V0H202v-156h316v-1037H202v-156" id="z"/><g id="d"><use transform="matrix(0.01193576388888889,0,0,0.01193576388888889,0,0)" xlink:href="#q"/><use transform="matrix(0.01193576388888889,0,0,0.01193576388888889,14.669053819444446,0)" xlink:href="#r"/><use transform="matrix(0.01193576388888889,0,0,0.01193576388888889,29.338107638888893,0)" xlink:href="#s"/><use transform="matrix(0.01193576388888889,0,0,0.01193576388888889,44.00716145833334,0)" xlink:href="#y"/><use transform="matrix(0.01193576388888889,0,0,0.01193576388888889,58.676215277777786,0)" xlink:href="#z"/><use transform="matrix(0.01193576388888889,0,0,0.01193576388888889,73.34526909722223,0)" xlink:href="#v"/></g><path d="M655-135c108 0 195-33 260-74v-336H622v-160h479v572C981-54 839 20 639 20c-388 0-526-306-526-701 0-406 129-689 529-689 261 0 392 137 461 331l-171 56c-47-131-122-231-288-231-281 0-330 245-330 533 0 179 28 314 84 407s142 139 257 139" id="A"/><path d="M1121-976c0 225-142 341-344 379L1177 0H957L591-575H353V0H162v-1349h482c281 3 477 100 477 373zM633-726c181-1 296-73 296-247 0-149-101-223-304-223H353v470h280" id="B"/><path d="M1034 0L896-382H333L196 0H0l510-1349h217L1228 0h-194zM847-531c-77-225-157-447-231-674-69 231-154 451-232 674h463" id="C"/><g id="e"><use transform="matrix(0.015190972222222224,0,0,0.015190972222222224,0,0)" xlink:href="#A"/><use transform="matrix(0.015190972222222224,0,0,0.015190972222222224,18.669704861111114,0)" xlink:href="#B"/><use transform="matrix(0.015190972222222224,0,0,0.015190972222222224,37.33940972222223,0)" xlink:href="#C"/></g><use transform="matrix(0.015190972222222224,0,0,0.015190972222222224,0,0)" xlink:href="#t" id="f"/><use transform="matrix(0.015190972222222224,0,0,0.015190972222222224,0,0)" xlink:href="#x" id="g"/><use transform="matrix(0.015190972222222224,0,0,0.015190972222222224,0,0)" xlink:href="#y" id="h"/><path fill="#999" d="M1155 0H73v-143l818-1050H146v-156h962v139L290-156h865V0" id="D"/><path fill="#999" d="M237 0v-1349h191v1193h672V0H237" id="E"/><g id="i"><use transform="matrix(0.01193576388888889,0,0,0.01193576388888889,0,0)" xlink:href="#q"/><use transform="matrix(0.01193576388888889,0,0,0.01193576388888889,14.669053819444446,0)" xlink:href="#r"/><use transform="matrix(0.01193576388888889,0,0,0.01193576388888889,29.338107638888893,0)" xlink:href="#s"/><use transform="matrix(0.01193576388888889,0,0,0.01193576388888889,44.00716145833334,0)" xlink:href="#t"/><use transform="matrix(0.01193576388888889,0,0,0.01193576388888889,58.676215277777786,0)" xlink:href="#z"/><use transform="matrix(0.01193576388888889,0,0,0.01193576388888889,73.34526909722223,0)" xlink:href="#D"/><use transform="matrix(0.01193576388888889,0,0,0.01193576388888889,88.01432291666667,0)" xlink:href="#v"/><use transform="matrix(0.01193576388888889,0,0,0.01193576388888889,102.68337673611111,0)" xlink:href="#E"/></g><path d="M1060-1016c0 191-128 285-295 323v4c154 18 262 91 313 209 14 35 21 72 21 110 0 277-194 390-478 390-292 0-457-129-493-382l186-17c24 161 121 250 307 250 172 1 298-80 291-247-8-208-220-239-446-233v-156c217 9 409-34 409-232 0-152-102-225-264-225-159 0-264 88-278 233l-181-14c33-239 196-367 461-367 264 0 447 102 447 354" id="F"/><use transform="matrix(0.0087890625,0,0,0.0087890625,0,0)" xlink:href="#F" id="j"/><path d="M615-1102c343 0 484 203 482 560-1 347-147 562-488 562-336 0-475-219-479-562-4-349 156-560 485-560zm-8 989c240 0 301-180 301-429 0-245-55-427-290-427-236 0-299 181-299 427 0 243 61 429 288 429" id="G"/><path d="M839-1335c-182-6-269 67-259 253h491v142H580V0H400v-940H138v-142h262c-15-293 132-408 418-402 94 2 200 7 281 21v145c-75-10-177-14-260-17" id="H"/><g id="k"><use transform="matrix(0.0087890625,0,0,0.0087890625,0,0)" xlink:href="#G"/><use transform="matrix(0.0087890625,0,0,0.0087890625,10.8017578125,0)" xlink:href="#H"/></g><path d="M353-779c69-51 166-92 291-90 218 3 357 100 423 255 21 52 32 109 32 170 0 305-189 464-500 464-268 0-424-116-471-335l182-21c35 130 124 212 293 209 198-4 309-114 309-313 0-182-118-282-305-282-120 0-198 45-262 101H169l47-728h801v145H382" id="I"/><use transform="matrix(0.0087890625,0,0,0.0087890625,0,0)" xlink:href="#I" id="l"/><path d="M334-464v-160h560v160H334" id="J"/><use transform="matrix(0.0087890625,0,0,0.0087890625,0,0)" xlink:href="#J" id="m"/><path d="M706-877c265 0 409 163 409 431 0 299-171 466-474 466-381 0-516-302-516-692 0-236 47-410 135-526 112-147 319-207 541-154 154 36 236 149 276 306l-265 37c-22-86-75-139-170-139-76 0-135 36-178 108s-64 179-64 318c54-94 164-155 306-155zm-74 678c138 0 201-98 201-239s-67-232-208-232c-125 0-205 73-205 202 0 149 67 269 212 269" id="K"/><path d="M117-675c0-408 109-695 502-695 384 0 492 295 492 695 0 326-84 561-303 658-117 51-277 52-394 1-217-95-297-335-297-659zm591 451c148-93 132-449 108-680-15-138-53-246-199-246-150 0-193 107-207 248-22 230-40 585 106 678 50 32 141 32 192 0zM506-555v-249h215v249H506" id="L"/><path d="M236 0H61l932-1353h177zM0-1025c0-214 83-337 291-336 203 1 283 126 283 336-1 211-84 341-287 341C83-684 0-813 0-1025zm289 201c89-10 109-85 109-201 0-105-10-201-109-201-97 0-113 81-113 201 0 118 19 192 113 201zm367 495c0-214 83-337 291-336 203 1 283 126 283 336-1 211-84 341-287 341-204 0-287-129-287-341zm289 201c89-10 109-85 109-201 0-105-10-201-109-201-97 0-113 81-113 201 0 118 19 192 113 201" id="M"/><g id="n"><use transform="matrix(0.0087890625,0,0,0.0087890625,0,0)" xlink:href="#K"/><use transform="matrix(0.0087890625,0,0,0.0087890625,10.8017578125,0)" xlink:href="#L"/><use transform="matrix(0.0087890625,0,0,0.0087890625,21.603515625,0)" xlink:href="#M"/></g><path d="M148-1120c216-7 379-89 463-229h166v1204h353V0H157v-145h439v-1021c-79 124-254 184-448 194v-148" id="N"/><use transform="matrix(0.0087890625,0,0,0.0087890625,0,0)" xlink:href="#N" id="o"/><path d="M135-968c34-256 187-402 480-402 217 0 371 75 441 220 45 93 40 219-8 308-114 212-348 323-508 488-38 39-66 80-85 123h654V0H123v-195c112-245 321-399 515-560 57-48 107-96 142-157 14-26 22-53 22-80-1-104-73-156-185-154-131 2-181 74-199 194" id="O"/><g id="p"><use transform="matrix(0.0087890625,0,0,0.0087890625,0,0)" xlink:href="#O"/><use transform="matrix(0.0087890625,0,0,0.0087890625,10.8017578125,0)" xlink:href="#L"/><use transform="matrix(0.0087890625,0,0,0.0087890625,21.603515625,0)" xlink:href="#M"/></g></defs></g></svg>